<svg width="23" height="24" viewBox="0 0 23 24" fill="none" xmlns="http://www.w3.org/2000/svg">
<rect width="23" height="24" rx="5" fill="white"/>
<path fill-rule="evenodd" clip-rule="evenodd" d="M23 5C23 2.23858 20.7614 0 18 0H5C2.23858 0 0 2.23858 0 5V19C0 21.7614 2.23858 24 5 24H18C20.7614 24 23 21.7614 23 19V5ZM2.2999 12C2.2999 6.72 6.4399 2.4 11.4999 2.4C16.5599 2.4 20.6999 6.72 20.6999 12C20.6999 17.28 16.5599 21.6 11.4999 21.6C6.4399 21.6 2.2999 17.28 2.2999 12ZM14.2599 8.16C14.2599 6.57692 13.017 5.28 11.4999 5.28C9.98278 5.28 8.7399 6.57692 8.7399 8.16C8.7399 9.74307 9.98278 11.04 11.4999 11.04C13.017 11.04 14.2599 9.74307 14.2599 8.16ZM6.67146 14.7298C5.9289 15.4153 6.2396 16.5617 6.9644 17.266C8.15217 18.4202 9.74633 19.1446 11.4999 19.1446C13.2518 19.1446 14.8446 18.4189 16.032 17.2674C16.759 16.5624 17.0707 15.4138 16.326 14.7276C15.1717 13.664 12.8514 13.0938 11.4999 13.0938C10.1475 13.0938 7.82499 13.6648 6.67146 14.7298Z" fill="#2F80ED"/>
</svg>
